<?xml version="1.0" encoding="UTF-8"?>
<svg version="1.1" xmlns="http://www.w3.org/2000/svg" width="387" height="423">
<path d="M0 0 C3.5 0.8125 3.5 0.8125 5.4375 2 C6.97273259 4.61892619 6.6980568 6.84164805 6.5 9.8125 C7.16 9.8125 7.82 9.8125 8.5 9.8125 C8.75 12.625 8.75 12.625 8.5 15.8125 C6.5 17.5625 6.5 17.5625 4.5 18.8125 C4.5 19.4725 4.5 20.1325 4.5 20.8125 C8.42856661 22.47916462 12.39397291 23.65993099 16.5 24.8125 C18.50431449 25.46608081 20.5040278 26.13386945 22.5 26.8125 C23.24894531 27.01617188 23.99789062 27.21984375 24.76953125 27.4296875 C31.13654729 29.26059034 31.13654729 29.26059034 33.1875 32.375 C33.620625 33.179375 34.05375 33.98375 34.5 34.8125 C37.70900362 36.27113801 40.50351385 36.81293923 44 37.25 C47.67647463 37.84086199 50.2704008 39.00077362 53.5 40.8125 C55.16641006 39.821745 55.16641006 39.821745 56.5 37.8125 C56.77345479 35.09403765 56.63491285 32.55572801 56.5 29.8125 C65.46307176 24.83054448 65.46307176 24.83054448 69.5 25.8125 C70.20125 26.59625 70.9025 27.38 71.625 28.1875 C75.31529485 31.55689964 78.22393576 31.75820792 83.07421875 32.35546875 C85.5 32.8125 85.5 32.8125 87.5 34.8125 C89.50125223 35.2003257 89.50125223 35.2003257 91.75 35.3125 C95.60645931 35.65186842 98.82364124 36.58704708 102.5 37.8125 C106.08912633 38.17873738 107.84154182 38.21770503 110.9375 36.3125 C114.36500376 34.30615633 116.59085926 34.314973 120.5 34.8125 C124.09219191 37.66355194 125.1634178 40.19259133 126.3125 44.5625 C127.95566556 49.94370354 130.08849631 53.09502475 133.97265625 57.0859375 C136.03562472 59.41798881 136.57843731 61.86349938 137.5 64.8125 C138.48439234 66.1933837 139.50918829 67.54593924 140.5625 68.875 C142.88544606 71.81965912 144.25904429 73.95720865 144.5 77.8125 C145.16 77.8125 145.82 77.8125 146.5 77.8125 C146.5928125 79.4521875 146.5928125 79.4521875 146.6875 81.125 C147.0896875 82.9503125 147.0896875 82.9503125 147.5 84.8125 C148.263125 85.26625 149.02625 85.72 149.8125 86.1875 C153.93149049 88.67805239 155.11148681 92.31400062 156.5 96.8125 C156.71415577 98.41101987 156.88301433 100.01644698 157 101.625 C157.23361653 104.68856223 157.30487801 105.56162887 159.25 108.0625 C160.84523404 109.30323758 162.45047778 110.53115393 164.0625 111.75 C167.33977084 115.8675967 167.74058672 119.81572113 168.53125 124.94921875 C169.19643909 128.00499013 169.19643909 128.00499013 171.88671875 129.05078125 C172.74910156 129.30214844 173.61148437 129.55351562 174.5 129.8125 C176.73308016 131.3238254 178.50994096 132.96128229 180.5 134.8125 C180.5 135.4725 180.5 136.1325 180.5 136.8125 C181.36625 136.9775 182.2325 137.1425 183.125 137.3125 C187.6730181 139.33384138 190.17339944 142.43981101 192.5 146.8125 C192.5 148.1325 192.5 149.4525 192.5 150.8125 C191.51 150.8125 190.52 150.8125 189.5 150.8125 C189.5 151.4725 189.5 152.1325 189.5 152.8125 C191.15 153.1425 192.8 153.4725 194.5 153.8125 C194.83 155.1325 195.16 156.4525 195.5 157.8125 C198.10557491 157.53065415 200.70900398 157.23747289 203.3125 156.9375 C204.05048828 156.85886719 204.78847656 156.78023437 205.54882812 156.69921875 C209.21506181 156.26789714 211.37951745 155.8928217 214.5 153.8125 C216.94319088 153.2194374 219.3441528 152.70336989 221.8125 152.25 C223.10800781 152.00121094 224.40351563 151.75242188 225.73828125 151.49609375 C228.98814948 150.90551541 232.23989045 150.34321551 235.5 149.8125 C237.09182799 152.99615597 236.62686901 156.33628913 236.5 159.8125 C236.45875 160.946875 236.4175 162.08125 236.375 163.25 C235.35529303 167.40166411 233.57291687 169.90884143 231.1171875 173.3515625 C228.85036322 176.8010777 227.29899265 180.47106597 225.64453125 184.2421875 C222.02651586 192.3672869 216.86350128 198.6684298 210.5 204.8125 C210.07460938 205.26882812 209.64921875 205.72515625 209.2109375 206.1953125 C207.07277735 208.21631319 204.73900864 209.77419507 202.3125 211.4375 C197.65075981 214.77523208 193.97068335 218.3021477 190.3515625 222.734375 C188.5 224.8125 188.5 224.8125 186.06640625 226.7421875 C183.26390951 229.00295351 181.10237512 231.41165818 178.8125 234.1875 C178.04550781 235.10273438 177.27851563 236.01796875 176.48828125 236.9609375 C174.45944389 239.87066495 173.43853642 242.40967812 172.5 245.8125 C173.16 246.4725 173.82 247.1325 174.5 247.8125 C174.125 249.9375 174.125 249.9375 173.5 251.8125 C172.860625 251.915625 172.22125 252.01875 171.5625 252.125 C170.5415625 252.4653125 170.5415625 252.4653125 169.5 252.8125 C169.17 253.8025 168.84 254.7925 168.5 255.8125 C169.16 256.4725 169.82 257.1325 170.5 257.8125 C170.58984375 260.31640625 170.58984375 260.31640625 170.4375 263.375 C170.3513862 268.88628293 170.72732984 273.93963565 173.5 278.8125 C174.17442139 279.2264502 174.84884277 279.64040039 175.54370117 280.06689453 C177.5 281.8125 177.5 281.8125 177.94165039 284.44458008 C177.83991456 287.84044296 177.73005153 291.23162119 177.5625 294.625 C177.53865234 295.80126953 177.51480469 296.97753906 177.49023438 298.18945312 C177.20138638 305.18907094 176.70888252 309.01463704 171.5 313.8125 C170.38625 315.359375 170.38625 315.359375 169.25 316.9375 C166.21057462 320.11508108 163.83488551 321.0910458 159.84375 322.6875 C154.7300459 325.14207797 150.7610648 329.19113097 147.3125 333.625 C145.23714284 336.1297414 143.57526379 336.87283606 140.5 337.8125 C140.70496094 338.38097656 140.90992188 338.94945312 141.12109375 339.53515625 C143.62178431 346.70220719 145.41184729 353.25498792 143.55859375 360.80859375 C141.82588375 364.08859459 139.11565662 364.72525981 135.7578125 365.9453125 C132.3228992 367.26460446 130.63921242 368.83056753 128.5 371.8125 C127.81413927 374.32451753 127.36483646 376.81284609 126.94921875 379.3828125 C125.83845458 385.39059785 122.73444632 388.6742911 118.5 392.8125 C117.42389853 394.2188628 116.36270374 395.63669398 115.3125 397.0625 C111.29803487 402.32434816 106.55159329 406.56493844 101.5 410.8125 C100.70335937 411.51375 99.90671875 412.215 99.0859375 412.9375 C91.24964553 418.61940354 80.99358798 419.1425737 71.63256836 419.44555664 C66.36500236 419.64757549 61.77910033 420.67135899 56.734375 422.23828125 C53.70276159 423.0173847 51.46512855 422.75266271 48.5 421.8125 C47.4171875 421.4721875 47.4171875 421.4721875 46.3125 421.125 C43.60020348 419.16092321 42.72692262 416.87980655 41.5 413.8125 C41.5 412.4925 41.5 411.1725 41.5 409.8125 C42.16 409.4825 42.82 409.1525 43.5 408.8125 C43.14303063 405.68901801 42.77066445 404.1102309 40.625 401.75 C37.8069859 397.85450992 37.22576297 394.03067165 36.30859375 389.359375 C36.04175781 388.51890625 35.77492187 387.6784375 35.5 386.8125 C34.51 386.4825 33.52 386.1525 32.5 385.8125 C29.06676886 381.51673296 28.6022023 376.84298031 27.875 371.5625 C27.75382813 370.75425781 27.63265625 369.94601562 27.5078125 369.11328125 C26.80480912 364.33744306 26.2413383 359.5633847 25.8046875 354.75585938 C25.189481 350.83194612 23.08429426 347.73763258 21 344.4375 C19.43417916 341.69731354 18.48467471 338.92992888 17.46484375 335.953125 C16.37356331 333.53198459 14.93832295 331.85564371 13.25 329.8125 C8.79571279 323.4460746 10.31845236 316.05783927 11.5 308.8125 C12.25385655 305.6751928 13.29217099 302.79756314 14.5 299.8125 C15.2311522 297.46452156 15.94728899 295.11257584 16.65625 292.7578125 C17.61462117 290.54823452 18.6354402 289.32507657 20.5 287.8125 C21.16 287.8125 21.82 287.8125 22.5 287.8125 C22.08495532 284.8380131 21.69688083 282.24100534 20.4375 279.5 C19.48904924 276.78110782 19.51009196 275.43396063 19.6875 272.625 C19.8344107 267.71981497 18.15148518 264.530398 15.69140625 260.3671875 C14.5 257.8125 14.5 257.8125 14.16796875 254.4765625 C13.30065474 249.71901548 11.19840171 247.04611574 8.25 243.3125 C7.28607213 242.05237866 6.32252859 240.79196324 5.359375 239.53125 C4.88628906 238.91612549 4.41320312 238.30100098 3.92578125 237.66723633 C3.45527344 237.05517334 2.98476562 236.44311035 2.5 235.8125 C2.01917969 235.19205811 1.53835937 234.57161621 1.04296875 233.93237305 C-2.02336646 229.84665611 -3.1500012 227.36720947 -2.875 222.33984375 C-2.2831883 218.35127948 -1.21822889 214.50533875 -0.1796875 210.61328125 C0.96401845 205.90042396 1.27366241 202.39499129 -0.875 198 C-2.45996212 195.75523063 -2.45996212 195.75523063 -4.5 193.8125 C-8.51238024 193.61188099 -11.82241792 193.66916533 -15.75 194.5 C-18.5 194.8125 -18.5 194.8125 -20.75 193.6875 C-22.76497373 191.52859958 -23.41088225 189.53529437 -24.5 186.8125 C-27.011738 184.22013831 -28.4344639 183.81980566 -32.07421875 183.4140625 C-33.44527474 183.40123332 -34.81666011 183.40998459 -36.1875 183.4375 C-36.90574951 183.44692627 -37.62399902 183.45635254 -38.36401367 183.46606445 C-45.24959173 183.66146073 -50.21306762 185.25481913 -56.34375 188.16015625 C-57.3234375 188.62292969 -58.303125 189.08570313 -59.3125 189.5625 C-60.20582031 190.01109375 -61.09914063 190.4596875 -62.01953125 190.921875 C-64.79431917 191.91817681 -65.79478509 191.83822732 -68.5 190.8125 C-76.56583471 187.96573481 -82.36745377 188.8816339 -90.1875 191.9375 C-95.8961265 194.12395166 -98.91576671 193.8672891 -104.5625 191.5625 C-107.75688978 189.65945928 -109.9104307 187.46680853 -112.5 184.8125 C-113.42039063 184.21050781 -114.34078125 183.60851562 -115.2890625 182.98828125 C-118.6198176 180.73130973 -121.50968947 178.24052117 -124.375 175.4375 C-124.87257813 174.98117188 -125.37015625 174.52484375 -125.8828125 174.0546875 C-128.50872656 171.48648584 -129.4659084 170.16921451 -129.8203125 166.4609375 C-129.71460938 165.58695313 -129.60890625 164.71296875 -129.5 163.8125 C-130.20125 163.6475 -130.9025 163.4825 -131.625 163.3125 C-136.54141463 160.74741411 -139.76106083 156.02931751 -141.5 150.8125 C-142.49 150.4825 -143.48 150.1525 -144.5 149.8125 C-147.5 147.8125 -147.5 147.8125 -148.046875 145.24609375 C-148.18086709 143.26971037 -148.26531056 141.28926253 -148.296875 139.30859375 C-148.24309528 136.63778853 -148.24309528 136.63778853 -150.5 134.8125 C-150.625 132.1875 -150.625 132.1875 -150.5 129.8125 C-148.025 128.8225 -148.025 128.8225 -145.5 127.8125 C-145.43941406 127.18601562 -145.37882813 126.55953125 -145.31640625 125.9140625 C-145.23261719 125.09679687 -145.14882812 124.27953125 -145.0625 123.4375 C-144.98128906 122.62539062 -144.90007812 121.81328125 -144.81640625 120.9765625 C-144.5 118.8125 -144.5 118.8125 -143.5 116.8125 C-143.33330682 113.27078022 -143.33330682 113.27078022 -143.5 109.8125 C-143.83 109.4825 -144.16 109.1525 -144.5 108.8125 C-144.45875 107.554375 -144.4175 106.29625 -144.375 105 C-144.30662277 101.14352424 -145.14343328 99.85639869 -147.5 96.8125 C-148.004958 92.8449729 -148.11854451 90.70595318 -145.8125 87.375 C-144.6678125 86.1065625 -144.6678125 86.1065625 -143.5 84.8125 C-142.23793037 82.75815323 -141.0312736 80.68025708 -139.84375 78.58203125 C-138.5 76.8125 -138.5 76.8125 -136.37109375 75.8125 C-135.75363281 75.4825 -135.13617188 75.1525 -134.5 74.8125 C-134.27142096 72.82059691 -134.04913064 70.82713108 -133.89453125 68.828125 C-133.24536579 65.51159652 -130.96366498 63.99620305 -128.5 61.8125 C-127.70927261 60.61709058 -126.9390978 59.40789101 -126.1875 58.1875 C-123.77996136 54.68152185 -121.60035028 53.8979922 -117.6328125 52.68359375 C-113.61821624 51.04393264 -110.31417795 48.07582356 -107.5 44.8125 C-106.15033813 41.52899425 -106.75943796 39.20976363 -107.5 35.8125 C-107.73140305 32.01511657 -107.4543376 29.12279655 -105.5 25.8125 C-102.03011432 24.10838102 -98.58117116 23.09420055 -94.87109375 22.01953125 C-89.96762305 20.26382737 -88.79073762 18.39397524 -86.5 13.8125 C-85.20925629 11.05288963 -85.20925629 11.05288963 -84.5 8.8125 C-81.12537285 9.35973683 -79.41765 9.8674 -76.5 11.8125 C-73.20555292 12.16938378 -73.20555292 12.16938378 -69.5625 12.125 C-67.72365234 12.15013672 -67.72365234 12.15013672 -65.84765625 12.17578125 C-62.24148027 11.78444593 -61.21760282 11.03546419 -58.5 8.8125 C-55.76286305 8.43789184 -53.27974416 8.67351279 -50.5 8.8125 C-50.17 7.8225 -49.84 6.8325 -49.5 5.8125 C-48.71753906 5.67972656 -47.93507813 5.54695312 -47.12890625 5.41015625 C-46.11699219 5.23355469 -45.10507813 5.05695312 -44.0625 4.875 C-43.05316406 4.70097656 -42.04382813 4.52695313 -41.00390625 4.34765625 C-38.5712562 4.06498903 -38.5712562 4.06498903 -37.5 2.8125 C-34.09967346 2.75225058 -30.7140947 2.79248967 -27.31445312 2.8515625 C-23.27840765 3.00257065 -23.27840765 3.00257065 -19.5 1.8125 C-16.18440484 1.78159565 -12.88070228 1.88007815 -9.56640625 1.97265625 C-5.53104551 1.76189219 -4.15538265 -0.22260978 0 0 Z " fill="#4B1C2A" transform="translate(150.5,0.1875)"/>
<path d="M0 0 C1.875 0.125 1.875 0.125 4 1 C9.20212661 7.16548339 8.12060194 16.40207799 8 24 C7.01 24 6.02 24 5 24 C3.60652447 27.8588553 2.62868692 31.68921457 1.75 35.6875 C0.42841003 41.12815717 -1.71571303 45.40335322 -4.51953125 50.21484375 C-6.5449903 54.02527199 -7.77675295 57.95731928 -9.0703125 62.0625 C-9.97710614 64.92766311 -10.94481928 67.74868476 -12 70.5625 C-12.28875 71.34753906 -12.5775 72.13257813 -12.875 72.94140625 C-14.75667104 76.38460292 -17.3500174 77.71739887 -20.875 79.25 C-24.43193565 80.10366456 -26.50612275 80.06335394 -30 79 C-35.79990561 74.1740408 -36.62533789 67.31843584 -37.4375 60.125 C-36.89867995 56.27628536 -35.5681559 54.86165943 -33 52 C-30.85450869 48.52282443 -29.94000372 46.79495072 -30.25 42.6875 C-30.73452956 40.10179942 -30.73452956 40.10179942 -32 39 C-32.42817469 34.03317354 -32.42383948 29.98093976 -29.671875 25.59375 C-26.64407452 22.70743552 -22.77538066 21.5790371 -18.875 20.23828125 C-15.79913451 18.91348592 -14.27383063 17.40614406 -12 15 C-11.01 14.67 -10.02 14.34 -9 14 C-8.71125 13.236875 -8.4225 12.47375 -8.125 11.6875 C-6.73218559 8.36022113 -4.78585364 7.21439648 -2 5 C-1.20376178 2.90584196 -1.20376178 2.90584196 -1 1 C-0.67 0.67 -0.34 0.34 0 0 Z " fill="#5A2E3B" transform="translate(373,290)"/>
</svg>
