<svg xmlns="http://www.w3.org/2000/svg" viewBox="0 0 400 420" fill="none" aria-hidden="true">
  <path
    d="M105 355 C62 312 45 248 62 178 C78 108 125 58 182 38 C218 26 255 32 278 52 C301 72 310 108 302 148 C294 188 266 218 238 238 C210 258 188 282 180 312 C172 342 184 368 208 386 C178 396 135 378 105 355 Z M268 68 C312 94 342 144 350 205 C358 266 340 320 304 355 C326 330 336 280 328 218 C320 156 298 100 268 68 Z M188 208 C210 192 238 198 254 220 C236 238 208 244 188 232 C182 226 182 214 188 208 Z"
    stroke="white"
    stroke-width="1.25"
    fill="none"
  />
</svg>
